<?xml version="1.0" encoding="utf-8"?>
<!-- Generator: Adobe Illustrator 16.2.1, SVG Export Plug-In . SVG Version: 6.00 Build 0)  -->
<!DOCTYPE svg PUBLIC "-//W3C//DTD SVG 1.1//EN" "http://www.w3.org/Graphics/SVG/1.1/DTD/svg11.dtd">
<svg version="1.1" id="Layer_1" xmlns="http://www.w3.org/2000/svg" xmlns:xlink="http://www.w3.org/1999/xlink" x="0px" y="0px"
	 width="82px" height="30px" viewBox="0 0 236.461 86.98" enable-background="new 0 0 236.461 86.98" xml:space="preserve">
<g>
	<path fill="#E8F3D9" d="M232.601,76.305c0,3.294-2.67,5.966-5.966,5.966H9.826c-3.296,0-5.966-2.672-5.966-5.966V10.676
		c0-3.296,2.67-5.966,5.966-5.966h216.809c3.296,0,5.966,2.67,5.966,5.966V76.305z"/>
	<g>
		<g>
			<path fill="#58595B" d="M27.151,47.687c0.294,0.688,0.727,1.231,1.288,1.637c0.563,0.4,1.237,0.689,2.014,0.864
				c0.779,0.175,1.628,0.261,2.542,0.261c0.644,0,1.288-0.078,1.933-0.241c0.646-0.163,1.228-0.403,1.752-0.727
				c0.524-0.322,0.956-0.739,1.292-1.248c0.334-0.509,0.502-1.129,0.502-1.855c0-0.696-0.215-1.27-0.643-1.713
				c-0.431-0.44-0.988-0.825-1.676-1.146c-0.684-0.324-1.465-0.607-2.334-0.849c-0.874-0.241-1.756-0.499-2.642-0.765
				c-0.913-0.269-1.798-0.593-2.661-0.966c-0.857-0.377-1.629-0.862-2.314-1.452c-0.688-0.593-1.237-1.317-1.652-2.178
				c-0.416-0.858-0.628-1.907-0.628-3.145c0-1.609,0.338-2.98,1.009-4.109c0.672-1.128,1.547-2.049,2.619-2.762
				c1.074-0.712,2.292-1.234,3.647-1.57c1.357-0.336,2.736-0.505,4.129-0.505c1.481,0,2.87,0.169,4.173,0.505
				c1.306,0.336,2.447,0.88,3.428,1.631c0.979,0.754,1.758,1.713,2.339,2.882c0.577,1.17,0.866,2.587,0.866,4.254h-6.007
				c0.029-0.809-0.087-1.486-0.342-2.036c-0.257-0.551-0.62-1.002-1.09-1.35c-0.468-0.35-1.029-0.598-1.67-0.747
				c-0.646-0.146-1.332-0.22-2.057-0.22c-0.589,0-1.188,0.061-1.794,0.181c-0.604,0.12-1.148,0.32-1.634,0.604
				c-0.483,0.282-0.874,0.651-1.167,1.107c-0.297,0.458-0.443,1.023-0.443,1.695c0,0.699,0.265,1.282,0.787,1.752
				s1.153,0.86,1.892,1.169c0.739,0.309,1.499,0.552,2.274,0.727c0.784,0.175,1.415,0.314,1.896,0.419
				c1.129,0.3,2.164,0.642,3.105,1.027c0.94,0.395,1.754,0.896,2.438,1.514c0.684,0.619,1.216,1.373,1.593,2.257
				c0.377,0.889,0.563,1.975,0.563,3.266c0,1.717-0.357,3.184-1.064,4.392c-0.715,1.21-1.632,2.19-2.744,2.944
				c-1.115,0.749-2.371,1.297-3.77,1.631c-1.396,0.336-2.781,0.503-4.148,0.503c-4.032,0-7.034-0.815-9.008-2.456
				c-1.975-1.642-2.963-4.219-2.963-7.739h6.006C26.732,46.148,26.853,47.003,27.151,47.687z"/>
			<path fill="#58595B" d="M60.171,54.682l0.641-2.903h-0.079c-1.853,2.284-4.284,3.428-7.292,3.428
				c-4.058,0-6.085-1.856-6.085-5.562c0-0.213,0.02-0.491,0.06-0.825c0.039-0.338,0.094-0.678,0.16-1.029
				c0.065-0.348,0.132-0.678,0.201-0.986c0.066-0.309,0.127-0.56,0.181-0.744l2.579-12.214h5.726l-2.538,12.214
				c-0.057,0.155-0.105,0.354-0.145,0.583c-0.04,0.229-0.079,0.462-0.12,0.705c-0.04,0.242-0.065,0.476-0.081,0.707
				c-0.012,0.225-0.02,0.407-0.02,0.543c0,0.616,0.287,1.127,0.868,1.531c0.573,0.401,1.202,0.602,1.874,0.602
				c0.858,0,1.615-0.163,2.274-0.503c0.66-0.334,1.224-0.772,1.693-1.309c0.468-0.536,0.858-1.154,1.167-1.855
				c0.311-0.694,0.544-1.409,0.709-2.138l2.334-11.08h5.726l-4.353,20.837H60.171z"/>
			<path fill="#58595B" d="M81.741,25.904l-2.134,10.157h0.079c0.89-0.968,1.795-1.673,2.722-2.117
				c0.926-0.443,2.074-0.664,3.445-0.664c1.342,0,2.487,0.234,3.428,0.705c0.939,0.472,1.711,1.108,2.316,1.914
				c0.604,0.807,1.047,1.746,1.329,2.822c0.281,1.074,0.425,2.218,0.425,3.424c0,1.614-0.231,3.204-0.688,4.777
				c-0.456,1.569-1.142,2.97-2.055,4.193c-0.913,1.22-2.043,2.21-3.385,2.96c-1.347,0.753-2.905,1.13-4.679,1.13
				c-1.445,0-2.771-0.27-3.964-0.808c-1.2-0.538-2.053-1.53-2.56-2.981h-0.086l-0.682,3.265h-5.241l6.009-28.777H81.741z
				 M80.695,38.479c-0.779,0.593-1.418,1.329-1.913,2.218c-0.501,0.884-0.858,1.854-1.09,2.9c-0.227,1.047-0.342,2.029-0.342,2.943
				c0,1.29,0.359,2.345,1.086,3.164c0.729,0.821,1.746,1.229,3.064,1.229c1.104,0,2.035-0.282,2.801-0.847
				c0.765-0.567,1.396-1.284,1.896-2.158c0.495-0.871,0.856-1.821,1.087-2.839c0.229-1.02,0.342-1.978,0.342-2.862
				c0-1.317-0.311-2.42-0.924-3.306c-0.62-0.888-1.666-1.328-3.146-1.328C82.429,37.594,81.474,37.889,80.695,38.479z"/>
			<path fill="#58595B" d="M93.489,31.226l1.133-5.321h24.018l-1.129,5.321h-8.625l-4.917,23.456h-6.37l4.922-23.456H93.489z"/>
			<path fill="#58595B" d="M113.478,41.24c0.549-1.573,1.344-2.946,2.375-4.129c1.035-1.183,2.293-2.116,3.77-2.806
				c1.48-0.684,3.143-1.025,4.999-1.025c1.425,0,2.732,0.183,3.927,0.543c1.198,0.361,2.226,0.909,3.084,1.632
				c0.86,0.727,1.526,1.64,1.996,2.742c0.473,1.104,0.705,2.404,0.705,3.907c0,1.83-0.275,3.541-0.823,5.139
				c-0.554,1.599-1.354,2.991-2.402,4.174c-1.047,1.183-2.315,2.107-3.809,2.783c-1.493,0.668-3.19,1.006-5.098,1.006
				c-2.901,0-5.217-0.746-6.95-2.237c-1.734-1.491-2.6-3.729-2.6-6.71C112.651,44.485,112.926,42.81,113.478,41.24z M118.632,48.03
				c0.177,0.566,0.438,1.062,0.786,1.489c0.35,0.434,0.784,0.773,1.292,1.029c0.511,0.259,1.103,0.385,1.772,0.385
				c1.076,0,1.997-0.291,2.76-0.866c0.768-0.579,1.396-1.305,1.899-2.177c0.495-0.872,0.862-1.822,1.105-2.842
				c0.242-1.023,0.363-1.977,0.363-2.86c0-1.4-0.314-2.516-0.946-3.349c-0.631-0.831-1.715-1.246-3.245-1.246
				c-1.049,0-1.955,0.287-2.723,0.866c-0.766,0.578-1.387,1.297-1.872,2.153c-0.483,0.862-0.845,1.794-1.088,2.801
				c-0.241,1.008-0.363,1.955-0.363,2.845C118.373,46.874,118.461,47.465,118.632,48.03z"/>
			<path fill="#58595B" d="M150.442,25.904l2.217,20.836h0.079l11.082-20.836h8.828l-6.086,28.777h-5.924l5.238-22.894h-0.082
				l-12.171,22.894h-4.838l-2.779-22.894h-0.077l-4.315,22.894h-5.962l6.04-28.777H150.442z"/>
			<path fill="#58595B" d="M177.692,46.019c0,0.106,0,0.213,0,0.32v0.522c0,1.21,0.377,2.19,1.132,2.942
				c0.75,0.751,1.907,1.13,3.465,1.13c0.565,0,1.068-0.088,1.511-0.263c0.443-0.173,0.832-0.396,1.17-0.668
				c0.338-0.264,0.631-0.572,0.885-0.922c0.257-0.35,0.49-0.688,0.703-1.01h5.726c-0.456,1.185-0.996,2.216-1.614,3.104
				c-0.615,0.883-1.355,1.631-2.216,2.238c-0.86,0.603-1.856,1.051-3,1.351c-1.145,0.291-2.467,0.442-3.974,0.442
				c-1.395,0-2.663-0.192-3.807-0.567c-1.145-0.372-2.115-0.943-2.919-1.711c-0.806-0.765-1.434-1.713-1.876-2.841
				c-0.443-1.129-0.664-2.447-0.664-3.95c0-1.667,0.268-3.271,0.804-4.816c0.536-1.542,1.298-2.917,2.28-4.113
				c0.979-1.192,2.181-2.146,3.604-2.856c1.421-0.713,3.021-1.07,4.797-1.07c1.452,0,2.771,0.188,3.97,0.564
				c1.194,0.375,2.216,0.946,3.064,1.713c0.845,0.768,1.503,1.719,1.971,2.861c0.471,1.144,0.705,2.464,0.705,3.968
				c0,1.025-0.104,2.11-0.322,3.267h-15.352C177.708,45.787,177.692,45.907,177.692,46.019z M187.748,40.435
				c-0.095-0.522-0.275-1.004-0.54-1.432c-0.273-0.429-0.66-0.774-1.175-1.029c-0.507-0.252-1.179-0.38-2.014-0.38
				c-0.804,0-1.515,0.118-2.134,0.358c-0.622,0.245-1.154,0.567-1.612,0.97c-0.458,0.401-0.839,0.874-1.149,1.41
				c-0.308,0.542-0.569,1.104-0.785,1.693h9.549C187.888,41.489,187.846,40.959,187.748,40.435z"/>
		</g>
		<g>
			<path fill="#8BC53F" d="M200.205,24.051l-5.685,5.681c3.688,3.688,5.711,8.596,5.698,13.82
				c-0.012,5.16-2.017,10.027-5.638,13.725l5.68,5.681C210.907,52.157,210.901,34.746,200.205,24.051z"/>
			<path fill="#8BC53F" d="M210.282,13.983l-5.683,5.683c13.094,13.094,13.082,34.423,0.018,47.647l5.683,5.686
				C226.499,56.638,226.511,30.212,210.282,13.983z"/>
		</g>
	</g>
</g>
</svg>
